<svg width="19" height="16" viewBox="0 0 19 16" fill="none" xmlns="http://www.w3.org/2000/svg">
<g clip-path="url(#clip0)">
<path d="M5.90125 10.6669H15.5343C15.6503 10.6673 15.7632 10.6297 15.8558 10.5598C15.9484 10.49 16.0156 10.3917 16.0471 10.2801L18.1808 2.81331C18.2045 2.73375 18.2092 2.64972 18.1946 2.568C18.1799 2.48627 18.1463 2.40911 18.0965 2.34272C18.0466 2.27633 17.9819 2.22257 17.9075 2.18574C17.833 2.14891 17.751 2.13004 17.668 2.13066H4.67019L4.28866 0.417941C4.2628 0.299272 4.19705 0.193053 4.10236 0.116998C4.00767 0.0409421 3.88977 -0.000351864 3.76832 2.25878e-06H0.530241C0.38882 2.25878e-06 0.25319 0.0561819 0.153189 0.156182C0.0531889 0.256183 -0.00299072 0.391813 -0.00299072 0.533234C-0.00299072 0.674656 0.0531889 0.810286 0.153189 0.910286C0.25319 1.01029 0.38882 1.06647 0.530241 1.06647H3.33673L5.26562 9.7332C4.92787 9.87917 4.65081 10.1372 4.48116 10.4636C4.3115 10.7901 4.25964 11.1651 4.33432 11.5254C4.40899 11.8857 4.60564 12.2092 4.89108 12.4414C5.17653 12.6735 5.53331 12.8001 5.90125 12.7999H15.5343C15.6757 12.7999 15.8114 12.7437 15.9114 12.6437C16.0114 12.5437 16.0676 12.408 16.0676 12.2666C16.0676 12.1252 16.0114 11.9896 15.9114 11.8896C15.8114 11.7896 15.6757 11.7334 15.5343 11.7334H5.90125C5.75983 11.7334 5.6242 11.6772 5.5242 11.5772C5.42419 11.4772 5.36802 11.3416 5.36802 11.2002C5.36802 11.0587 5.42419 10.9231 5.5242 10.8231C5.6242 10.7231 5.75983 10.6669 5.90125 10.6669Z" fill="black"/>
<path d="M5.36871 14.3996C5.36931 14.7158 5.46362 15.0248 5.63973 15.2874C5.81584 15.5501 6.06584 15.7547 6.35816 15.8753C6.65047 15.9959 6.97198 16.0272 7.28207 15.9652C7.59216 15.9032 7.87692 15.7507 8.10037 15.5269C8.32382 15.3032 8.47593 15.0182 8.5375 14.708C8.59906 14.3978 8.56731 14.0764 8.44626 13.7842C8.32521 13.4921 8.12029 13.2424 7.85739 13.0666C7.59449 12.8909 7.2854 12.797 6.96917 12.7969C6.54443 12.7973 6.13723 12.9663 5.83711 13.2669C5.53699 13.5674 5.36851 13.9749 5.36871 14.3996Z" fill="black"/>
<path d="M12.8681 14.3996C12.8687 14.7157 12.9629 15.0246 13.139 15.2872C13.315 15.5498 13.5648 15.7544 13.857 15.8751C14.1492 15.9958 14.4706 16.0272 14.7806 15.9654C15.0907 15.9036 15.3754 15.7513 15.599 15.5277C15.8225 15.3042 15.9748 15.0194 16.0366 14.7094C16.0984 14.3994 16.067 14.078 15.9463 13.7858C15.8256 13.4936 15.621 13.2437 15.3584 13.0677C15.0958 12.8917 14.787 12.7975 14.4708 12.7969C14.2603 12.7968 14.0519 12.8382 13.8574 12.9187C13.6629 12.9992 13.4862 13.1172 13.3373 13.2661C13.1885 13.4149 13.0704 13.5916 12.9899 13.7861C12.9094 13.9806 12.868 14.1891 12.8681 14.3996Z" fill="black"/>
</g>
<defs>
<clipPath id="clip0">
<rect width="18.2042" height="16" fill="white"/>
</clipPath>
</defs>
</svg>
